<svg xmlns="http://www.w3.org/2000/svg" viewBox="0 0 64 64">
  <!-- Simplified single-farmer app icon — per the brand guide, the ring mark
       is never rendered below 28px, so favicon uses the farmer alone. -->
  <rect width="64" height="64" rx="16" fill="#E0A82E"/>
  <g transform="translate(10 10) scale(1.8333)" fill="none" stroke="#1F3D2B" stroke-width="2" stroke-linecap="round" stroke-linejoin="round">
    <path d="M4 8.9C4 8.1 7.6 7.5 12 7.5s8 .6 8 1.4-3.6 1.5-8 1.5S4 9.7 4 8.9z" fill="#1F3D2B"/>
    <path d="M8.2 8.5C8.2 5.7 9.6 4 12 4s3.8 1.7 3.8 4.5"/>
    <circle cx="12" cy="12.3" r="2.7"/>
    <path d="M6 20.6c0-3.4 2.7-5.3 6-5.3s6 1.9 6 5.3"/>
    <path d="M10.5 15.6l.5 5M13.5 15.6l-.5 5" stroke-width="1.3"/>
  </g>
</svg>
